<mxfile host="app.diagrams.net" modified="2020-12-08T06:34:56.754Z" agent="5.0 (Macintosh; Intel Mac OS X 10_14_6) AppleWebKit/537.36 (KHTML, like Gecko) Chrome/87.0.4280.88 Safari/537.36" etag="eA1nzIpUpBaHiTroMclC" version="13.10.4" type="github">
  <diagram id="U6srqt75170l28uQUDtd" name="第 1 页">
    <mxGraphModel dx="1426" dy="803" grid="0" gridSize="10" guides="1" tooltips="1" connect="1" arrows="1" fold="1" page="1" pageScale="1" pageWidth="1169" pageHeight="1654" math="0" shadow="0">
      <root>
        <mxCell id="0" />
        <mxCell id="1" parent="0" />
        <mxCell id="2eTBFEBDB5hamMIv9L25-3" value="&lt;span&gt;EMR集群Gateway节点&lt;/span&gt;" style="rounded=1;whiteSpace=wrap;html=1;" vertex="1" parent="1">
          <mxGeometry x="660" y="340" width="150" height="40" as="geometry" />
        </mxCell>
        <mxCell id="2eTBFEBDB5hamMIv9L25-14" value="" style="group" vertex="1" connectable="0" parent="1">
          <mxGeometry x="860" y="220" width="110" height="260" as="geometry" />
        </mxCell>
        <mxCell id="2eTBFEBDB5hamMIv9L25-5" value="Master" style="rounded=0;whiteSpace=wrap;html=1;" vertex="1" parent="2eTBFEBDB5hamMIv9L25-14">
          <mxGeometry y="20" width="110" height="30" as="geometry" />
        </mxCell>
        <mxCell id="2eTBFEBDB5hamMIv9L25-6" value="Master" style="rounded=0;whiteSpace=wrap;html=1;" vertex="1" parent="2eTBFEBDB5hamMIv9L25-14">
          <mxGeometry y="50" width="110" height="30" as="geometry" />
        </mxCell>
        <mxCell id="2eTBFEBDB5hamMIv9L25-7" value="Core" style="rounded=0;whiteSpace=wrap;html=1;" vertex="1" parent="2eTBFEBDB5hamMIv9L25-14">
          <mxGeometry y="80" width="110" height="30" as="geometry" />
        </mxCell>
        <mxCell id="2eTBFEBDB5hamMIv9L25-8" value="&lt;span&gt;Core&lt;/span&gt;" style="rounded=0;whiteSpace=wrap;html=1;" vertex="1" parent="2eTBFEBDB5hamMIv9L25-14">
          <mxGeometry y="110" width="110" height="30" as="geometry" />
        </mxCell>
        <mxCell id="2eTBFEBDB5hamMIv9L25-9" value="&lt;span&gt;Core&lt;/span&gt;" style="rounded=0;whiteSpace=wrap;html=1;" vertex="1" parent="2eTBFEBDB5hamMIv9L25-14">
          <mxGeometry y="140" width="110" height="30" as="geometry" />
        </mxCell>
        <mxCell id="2eTBFEBDB5hamMIv9L25-10" value="&lt;span&gt;Core&lt;/span&gt;" style="rounded=0;whiteSpace=wrap;html=1;" vertex="1" parent="2eTBFEBDB5hamMIv9L25-14">
          <mxGeometry y="170" width="110" height="30" as="geometry" />
        </mxCell>
        <mxCell id="2eTBFEBDB5hamMIv9L25-11" value="Task" style="rounded=0;whiteSpace=wrap;html=1;" vertex="1" parent="2eTBFEBDB5hamMIv9L25-14">
          <mxGeometry y="200" width="110" height="30" as="geometry" />
        </mxCell>
        <mxCell id="2eTBFEBDB5hamMIv9L25-12" value="&lt;span&gt;Task&lt;/span&gt;" style="rounded=0;whiteSpace=wrap;html=1;" vertex="1" parent="2eTBFEBDB5hamMIv9L25-14">
          <mxGeometry y="230" width="110" height="30" as="geometry" />
        </mxCell>
        <mxCell id="2eTBFEBDB5hamMIv9L25-13" value="Hadoop集群" style="text;html=1;strokeColor=none;fillColor=none;align=center;verticalAlign=middle;whiteSpace=wrap;rounded=0;" vertex="1" parent="2eTBFEBDB5hamMIv9L25-14">
          <mxGeometry x="17.5" width="75" height="20" as="geometry" />
        </mxCell>
        <mxCell id="2eTBFEBDB5hamMIv9L25-15" value="" style="group" vertex="1" connectable="0" parent="1">
          <mxGeometry x="400" y="300" width="120" height="120" as="geometry" />
        </mxCell>
        <mxCell id="2eTBFEBDB5hamMIv9L25-1" value="仲谋机器 1" style="rounded=0;whiteSpace=wrap;html=1;" vertex="1" parent="2eTBFEBDB5hamMIv9L25-15">
          <mxGeometry width="120" height="60" as="geometry" />
        </mxCell>
        <mxCell id="2eTBFEBDB5hamMIv9L25-2" value="&lt;span&gt;仲谋机器 2&lt;/span&gt;" style="rounded=0;whiteSpace=wrap;html=1;" vertex="1" parent="2eTBFEBDB5hamMIv9L25-15">
          <mxGeometry y="60" width="120" height="60" as="geometry" />
        </mxCell>
        <mxCell id="2eTBFEBDB5hamMIv9L25-25" value="" style="group" vertex="1" connectable="0" parent="1">
          <mxGeometry x="30" y="240" width="250" height="230" as="geometry" />
        </mxCell>
        <mxCell id="2eTBFEBDB5hamMIv9L25-20" value="zm_datahub" style="shape=cylinder3;whiteSpace=wrap;html=1;boundedLbl=1;backgroundOutline=1;size=15;" vertex="1" parent="2eTBFEBDB5hamMIv9L25-25">
          <mxGeometry x="90" y="30" width="80" height="100" as="geometry" />
        </mxCell>
        <mxCell id="2eTBFEBDB5hamMIv9L25-21" value="rp-epp-pro.mysql.rds.aliyuncs.com" style="text;html=1;strokeColor=none;fillColor=none;align=center;verticalAlign=middle;whiteSpace=wrap;rounded=0;" vertex="1" parent="2eTBFEBDB5hamMIv9L25-25">
          <mxGeometry width="250" height="20" as="geometry" />
        </mxCell>
        <mxCell id="2eTBFEBDB5hamMIv9L25-22" value="zm_davinci" style="shape=cylinder3;whiteSpace=wrap;html=1;boundedLbl=1;backgroundOutline=1;size=15;" vertex="1" parent="2eTBFEBDB5hamMIv9L25-25">
          <mxGeometry x="90" y="130" width="80" height="100" as="geometry" />
        </mxCell>
        <mxCell id="2eTBFEBDB5hamMIv9L25-27" value="" style="endArrow=classic;html=1;exitX=1;exitY=0.5;exitDx=0;exitDy=0;entryX=0;entryY=0;entryDx=0;entryDy=0;" edge="1" parent="1" source="2eTBFEBDB5hamMIv9L25-3" target="2eTBFEBDB5hamMIv9L25-9">
          <mxGeometry width="50" height="50" relative="1" as="geometry">
            <mxPoint x="780" y="530" as="sourcePoint" />
            <mxPoint x="830" y="480" as="targetPoint" />
          </mxGeometry>
        </mxCell>
        <mxCell id="2eTBFEBDB5hamMIv9L25-28" value="" style="shape=flexArrow;endArrow=classic;html=1;exitX=1;exitY=0;exitDx=0;exitDy=0;entryX=0;entryY=0.5;entryDx=0;entryDy=0;" edge="1" parent="1" source="2eTBFEBDB5hamMIv9L25-2" target="2eTBFEBDB5hamMIv9L25-3">
          <mxGeometry width="50" height="50" relative="1" as="geometry">
            <mxPoint x="530" y="570" as="sourcePoint" />
            <mxPoint x="580" y="520" as="targetPoint" />
          </mxGeometry>
        </mxCell>
        <mxCell id="2eTBFEBDB5hamMIv9L25-29" value="" style="shape=flexArrow;endArrow=classic;html=1;exitX=0;exitY=1;exitDx=0;exitDy=0;" edge="1" parent="1" source="2eTBFEBDB5hamMIv9L25-1">
          <mxGeometry width="50" height="50" relative="1" as="geometry">
            <mxPoint x="280" y="510" as="sourcePoint" />
            <mxPoint x="210" y="360" as="targetPoint" />
          </mxGeometry>
        </mxCell>
        <mxCell id="2eTBFEBDB5hamMIv9L25-30" value="新仲谋数据平台" style="text;html=1;strokeColor=none;fillColor=none;align=center;verticalAlign=middle;whiteSpace=wrap;rounded=0;" vertex="1" parent="1">
          <mxGeometry x="408.5" y="276" width="103" height="20" as="geometry" />
        </mxCell>
        <mxCell id="2eTBFEBDB5hamMIv9L25-31" value="&lt;font color=&quot;#ff1008&quot;&gt;&lt;b&gt;访问Hadoop相关组件用于OLAP，例如：impala、presto、kylin&lt;/b&gt;&lt;/font&gt;" style="text;html=1;strokeColor=none;fillColor=none;align=center;verticalAlign=middle;whiteSpace=wrap;rounded=0;" vertex="1" parent="1">
          <mxGeometry x="510" y="380" width="320" height="30" as="geometry" />
        </mxCell>
        <mxCell id="2eTBFEBDB5hamMIv9L25-32" value="&lt;font color=&quot;#ff1008&quot;&gt;&lt;b&gt;访问zm_datahub、zm_davinci、common_data等数据库，用于读取元数据&lt;/b&gt;&lt;/font&gt;" style="text;html=1;strokeColor=none;fillColor=none;align=center;verticalAlign=middle;whiteSpace=wrap;rounded=0;" vertex="1" parent="1">
          <mxGeometry x="210" y="380" width="190" height="30" as="geometry" />
        </mxCell>
        <mxCell id="2eTBFEBDB5hamMIv9L25-33" value="&lt;font style=&quot;font-size: 22px&quot;&gt;新仲谋平台拓扑图&lt;/font&gt;" style="text;html=1;strokeColor=none;fillColor=none;align=center;verticalAlign=middle;whiteSpace=wrap;rounded=0;" vertex="1" parent="1">
          <mxGeometry x="422" y="192" width="185" height="20" as="geometry" />
        </mxCell>
      </root>
    </mxGraphModel>
  </diagram>
</mxfile>
